<svg width="165" height="264" viewBox="0 0 165 264" fill="none" xmlns="http://www.w3.org/2000/svg">
<path fill-rule="evenodd" clip-rule="evenodd" d="M164.5 228.999C164.5 252.332 151 263.999 124 263.999H110.066L55.0664 263.999H41C13.6667 263.999 0 252.332 0 228.999L0 175.499L0 83.4985C0 60.8318 13.5 49.4985 40.5 49.4985L55.0664 49.4985V68.9773C41.6888 71.907 35 81.4141 35 97.4985L35 175.499V215.999C35 231.41 41.6888 240.571 55.0664 243.482C58.1816 244.16 61.6594 244.499 65.5 244.499H99.5C103.403 244.499 106.925 244.137 110.066 243.413C123.022 240.429 129.5 231.291 129.5 215.999L129.5 175.499L129.5 96.4985C129.5 81.0773 123.022 71.9143 110.066 69.0096L110.066 49.4985H124C151 49.4985 164.5 60.8318 164.5 83.4985L164.5 175.499L164.5 228.999Z" fill="black"/>
<path fill-rule="evenodd" clip-rule="evenodd" d="M81.6915 0C94.0249 0 100.192 7.66667 100.192 23V133.5C100.192 149.167 94.0249 157 81.6915 157C70.0249 157 64.1915 149.5 64.1915 134.5L64.1915 23.5C64.1915 7.83333 70.0249 0 81.6915 0Z" fill="#30A7FD"/>
</svg>
